<svg width="44" height="44" viewBox="0 0 44 44" fill="none" xmlns="http://www.w3.org/2000/svg">
<rect width="44" height="44" rx="4" fill="#80E1BE"/>
<path fill-rule="evenodd" clip-rule="evenodd" d="M21.6953 12.3146C21.8893 12.2285 22.1106 12.2285 22.3045 12.3146L31.3045 16.3146C31.5754 16.435 31.7499 16.7036 31.7499 17C31.7499 17.2964 31.5754 17.565 31.3045 17.6854L22.3045 21.6854C22.1106 21.7715 21.8893 21.7715 21.6953 21.6854L12.6953 17.6854C12.4245 17.565 12.2499 17.2964 12.2499 17C12.2499 16.7036 12.4245 16.435 12.6953 16.3146L21.6953 12.3146ZM14.8466 17L21.9999 20.1793L29.1533 17L21.9999 13.8207L14.8466 17ZM12.3146 21.6954C12.4828 21.3169 12.926 21.1464 13.3045 21.3146L21.9999 25.1793L30.6953 21.3146C31.0739 21.1464 31.5171 21.3169 31.6853 21.6954C31.8535 22.0739 31.6831 22.5171 31.3045 22.6854L22.3045 26.6854C22.1106 26.7715 21.8893 26.7715 21.6953 26.6854L12.6953 22.6854C12.3168 22.5171 12.1464 22.0739 12.3146 21.6954ZM13.3045 26.3146C12.926 26.1464 12.4828 26.3169 12.3146 26.6954C12.1464 27.0739 12.3168 27.5171 12.6953 27.6854L21.6953 31.6854C21.8893 31.7715 22.1106 31.7715 22.3045 31.6854L31.3045 27.6854C31.6831 27.5171 31.8535 27.0739 31.6853 26.6954C31.5171 26.3169 31.0739 26.1464 30.6953 26.3146L21.9999 30.1793L13.3045 26.3146Z" fill="black"/>
</svg>
