<svg width="44" height="44" viewBox="0 0 44 44" fill="none" xmlns="http://www.w3.org/2000/svg">
<rect width="44" height="44" rx="4" fill="#A6E4F8"/>
<path fill-rule="evenodd" clip-rule="evenodd" d="M22 12.25C21.5858 12.25 21.25 12.5858 21.25 13V22C21.25 22.4142 21.5858 22.75 22 22.75H31C31.4142 22.75 31.75 22.4142 31.75 22C31.75 16.6152 27.3848 12.25 22 12.25ZM22.75 21.25V13.7836C26.7079 14.1403 29.8597 17.2921 30.2164 21.25H22.75ZM19.2816 14.2081C19.6727 14.0717 19.8791 13.6441 19.7427 13.253C19.6062 12.8619 19.1786 12.6554 18.7875 12.7919C18.4021 12.9263 18.0278 13.0842 17.6662 13.2639C14.4577 14.8584 12.25 18.1707 12.25 22C12.25 27.3848 16.6152 31.75 22 31.75C26.2464 31.75 29.8569 29.0358 31.195 25.2499C31.333 24.8594 31.1284 24.4309 30.7378 24.2929C30.3473 24.1548 29.9188 24.3595 29.7808 24.7501C28.6478 27.9554 25.5909 30.25 22 30.25C17.4437 30.25 13.75 26.5564 13.75 22C13.75 18.7619 15.6155 15.958 18.3338 14.6072C18.6395 14.4552 18.9559 14.3218 19.2816 14.2081Z" fill="black"/>
</svg>
