<svg width="44" height="44" viewBox="0 0 44 44" fill="none" xmlns="http://www.w3.org/2000/svg">
<rect width="44" height="44" rx="4" fill="#CCEF81"/>
<path fill-rule="evenodd" clip-rule="evenodd" d="M31 12.25H30.945C28.991 12.25 27.4326 12.25 25.9908 12.5121C24.6356 12.7585 23.3992 13.2316 22 14.107C20.6008 13.2316 19.3644 12.7585 18.0092 12.5121C16.5674 12.25 15.009 12.25 13.055 12.25H13.055H13C12.8011 12.25 12.6103 12.329 12.4697 12.4697C12.329 12.6103 12.25 12.8011 12.25 13V25C12.25 25.4142 12.5858 25.75 13 25.75C15.0202 25.75 16.4461 25.7525 17.7408 25.9879C19.0029 26.2174 20.1582 26.6735 21.584 27.624C21.8359 27.792 22.1641 27.792 22.416 27.624C23.8418 26.6735 24.9971 26.2174 26.2592 25.9879C27.5539 25.7525 28.9798 25.75 31 25.75C31.4142 25.75 31.75 25.4142 31.75 25V13C31.75 12.5858 31.4142 12.25 31 12.25ZM17.7408 13.9879C18.9029 14.1992 19.9745 14.6027 21.25 15.4073V25.6677C20.1465 25.0668 19.1176 24.7136 18.0092 24.5121C16.7425 24.2818 15.3858 24.2538 13.75 24.2505V13.7506C15.3844 13.7545 16.6124 13.7827 17.7408 13.9879ZM25.9908 24.5121C24.8824 24.7136 23.8535 25.0668 22.75 25.6677V15.4073C24.0255 14.6027 25.0971 14.1992 26.2592 13.9879C27.3876 13.7827 28.6156 13.7545 30.25 13.7506V24.2505C28.6142 24.2538 27.2575 24.2818 25.9908 24.5121ZM13 27.75C12.5858 27.75 12.25 28.0858 12.25 28.5C12.25 28.9142 12.5858 29.25 13 29.25C14.9738 29.25 16.3969 29.3743 17.6777 29.7236C18.9506 30.0707 20.1262 30.6522 21.584 31.624C21.8359 31.792 22.1641 31.792 22.416 31.624C23.8738 30.6522 25.0494 30.0707 26.3223 29.7236C27.6031 29.3743 29.0262 29.25 31 29.25C31.4142 29.25 31.75 28.9142 31.75 28.5C31.75 28.0858 31.4142 27.75 31 27.75C28.9738 27.75 27.3969 27.8757 25.9277 28.2764C24.585 28.6426 23.3686 29.2283 22 30.1041C20.6314 29.2283 19.415 28.6426 18.0723 28.2764C16.6031 27.8757 15.0262 27.75 13 27.75Z" fill="black"/>
</svg>
