<svg width="44" height="44" viewBox="0 0 44 44" fill="none" xmlns="http://www.w3.org/2000/svg">
<rect width="44" height="44" rx="4" fill="#FFB796"/>
<path fill-rule="evenodd" clip-rule="evenodd" d="M22 12.25C18.7774 12.25 16.3634 13.5959 14.7699 14.9238C14.3829 15.2463 14.0431 15.5686 13.75 15.8722V14C13.75 13.5858 13.4142 13.25 13 13.25C12.5858 13.25 12.25 13.5858 12.25 14V18C12.25 18.4142 12.5858 18.75 13 18.75H16.5C16.9142 18.75 17.25 18.4142 17.25 18C17.25 17.5858 16.9142 17.25 16.5 17.25H14.5176C14.8363 16.892 15.2407 16.484 15.7301 16.0762C17.1366 14.9041 19.2226 13.75 22 13.75C26.5842 13.75 30.25 17.4421 30.25 22C30.25 26.5563 26.5563 30.25 22 30.25C17.4437 30.25 13.75 26.5563 13.75 22C13.75 21.5858 13.4142 21.25 13 21.25C12.5858 21.25 12.25 21.5858 12.25 22C12.25 27.3848 16.6152 31.75 22 31.75C27.3848 31.75 31.75 27.3848 31.75 22C31.75 16.6168 27.4158 12.25 22 12.25ZM22.75 18C22.75 17.5858 22.4142 17.25 22 17.25C21.5858 17.25 21.25 17.5858 21.25 18V22C21.25 22.2508 21.3753 22.4849 21.584 22.624L24.584 24.624C24.9286 24.8538 25.3943 24.7607 25.624 24.416C25.8538 24.0714 25.7607 23.6057 25.416 23.376L22.75 21.5986V18Z" fill="black"/>
</svg>
