<svg width="44" height="44" viewBox="0 0 44 44" fill="none" xmlns="http://www.w3.org/2000/svg">
<rect width="44" height="44" rx="4" fill="#FECEF9"/>
<path fill-rule="evenodd" clip-rule="evenodd" d="M22 11.25C20.4812 11.25 19.25 12.4812 19.25 14V14.7523C19.1044 14.8075 18.961 14.8671 18.8198 14.9307L18.2877 14.3986C17.2137 13.3247 15.4725 13.3247 14.3986 14.3986C13.3247 15.4725 13.3247 17.2137 14.3986 18.2877L14.9307 18.8198C14.8671 18.961 14.8076 19.1044 14.7523 19.25H14C12.4812 19.25 11.25 20.4812 11.25 22C11.25 23.5188 12.4812 24.75 14 24.75H14.7523C14.8076 24.8956 14.8671 25.039 14.9307 25.1802L14.3986 25.7123C13.3247 26.7863 13.3247 28.5275 14.3986 29.6014L14.9289 29.0711L14.3986 29.6014C15.4725 30.6753 17.2137 30.6753 18.2877 29.6014L18.8198 29.0693C18.961 29.1329 19.1044 29.1925 19.25 29.2477V30C19.25 31.5188 20.4812 32.75 22 32.75C23.5188 32.75 24.75 31.5188 24.75 30V29.2477C24.8956 29.1924 25.039 29.1329 25.1802 29.0693L25.7123 29.6014C26.7863 30.6753 28.5275 30.6753 29.6014 29.6014C30.6753 28.5275 30.6753 26.7863 29.6014 25.7123L29.0693 25.1802C29.1329 25.039 29.1925 24.8956 29.2477 24.75H30C31.5188 24.75 32.75 23.5188 32.75 22C32.75 20.4812 31.5188 19.25 30 19.25H29.2477C29.1925 19.1044 29.1329 18.961 29.0693 18.8198L29.6014 18.2877C30.6753 17.2137 30.6753 15.4725 29.6014 14.3986L29.0711 14.9289L29.6014 14.3986C28.5275 13.3247 26.7863 13.3247 25.7123 14.3986L25.1802 14.9307C25.039 14.8671 24.8956 14.8076 24.75 14.7523V14C24.75 12.4812 23.5188 11.25 22 11.25ZM20.75 14C20.75 13.3096 21.3097 12.75 22 12.75C22.6904 12.75 23.25 13.3096 23.25 14V15.2899C23.25 15.6217 23.468 15.9141 23.7861 16.0087C24.2013 16.1323 24.5985 16.2979 24.9729 16.5008C25.2647 16.6589 25.6258 16.6064 25.8605 16.3717L26.773 15.4593C27.2611 14.9711 28.0526 14.9711 28.5407 15.4593C29.0289 15.9474 29.0289 16.7389 28.5407 17.227L27.6283 18.1395C27.3936 18.3742 27.3411 18.7353 27.4992 19.0271C27.7021 19.4015 27.8677 19.7987 27.9913 20.2139C28.0859 20.532 28.3783 20.75 28.7101 20.75H30C30.6904 20.75 31.25 21.3096 31.25 22C31.25 22.6904 30.6904 23.25 30 23.25H28.7101C28.3783 23.25 28.0859 23.468 27.9913 23.7861C27.8677 24.2013 27.7021 24.5985 27.4992 24.9729C27.3411 25.2647 27.3936 25.6258 27.6283 25.8605L28.5407 26.773C29.0289 27.2611 29.0289 28.0526 28.5407 28.5407C28.0526 29.0289 27.2611 29.0289 26.773 28.5407L25.8605 27.6283C25.6258 27.3936 25.2647 27.3411 24.9729 27.4992C24.5985 27.7021 24.2013 27.8677 23.7861 27.9913C23.4681 28.0859 23.25 28.3783 23.25 28.7101V30C23.25 30.6904 22.6904 31.25 22 31.25C21.3097 31.25 20.75 30.6904 20.75 30V28.7101C20.75 28.3783 20.532 28.0859 20.214 27.9913C19.7987 27.8677 19.4015 27.7021 19.0271 27.4992C18.7353 27.3411 18.3742 27.3936 18.1395 27.6283L17.227 28.5407C16.7389 29.0289 15.9474 29.0289 15.4593 28.5407C14.9711 28.0526 14.9711 27.2611 15.4593 26.773L16.3717 25.8605C16.6064 25.6258 16.6589 25.2647 16.5008 24.9729C16.2979 24.5985 16.1323 24.2013 16.0087 23.7861C15.9141 23.468 15.6217 23.25 15.2899 23.25H14C13.3096 23.25 12.75 22.6904 12.75 22C12.75 21.3096 13.3096 20.75 14 20.75H15.2899C15.6217 20.75 15.9141 20.532 16.0087 20.2139C16.1323 19.7987 16.2979 19.4015 16.5008 19.0271C16.6589 18.7353 16.6064 18.3742 16.3717 18.1395L15.4593 17.227C14.9711 16.7389 14.9711 15.9474 15.4593 15.4593C15.9474 14.9711 16.7389 14.9711 17.227 15.4593L18.1395 16.3717C18.3742 16.6064 18.7353 16.6589 19.0271 16.5008C19.4015 16.2979 19.7987 16.1323 20.214 16.0087C20.532 15.9141 20.75 15.6217 20.75 15.2899V14ZM19.75 22C19.75 20.7574 20.7574 19.75 22 19.75C23.2426 19.75 24.25 20.7574 24.25 22C24.25 23.2426 23.2426 24.25 22 24.25C20.7574 24.25 19.75 23.2426 19.75 22ZM22 18.25C19.9289 18.25 18.25 19.9289 18.25 22C18.25 24.0711 19.9289 25.75 22 25.75C24.0711 25.75 25.75 24.0711 25.75 22C25.75 19.9289 24.0711 18.25 22 18.25Z" fill="black"/>
</svg>
